<mxfile host="Electron" modified="2023-12-15T08:51:18.335Z" agent="Mozilla/5.0 (Windows NT 10.0; Win64; x64) AppleWebKit/537.36 (KHTML, like Gecko) draw.io/22.1.2 Chrome/114.0.5735.289 Electron/25.9.4 Safari/537.36" etag="hf9oIDJk2TxnqZVMA5G5" version="22.1.2" type="device">
  <diagram name="Pagina-1" id="1M92nTN2ugEILj_QW2uh">
    <mxGraphModel dx="1036" dy="606" grid="0" gridSize="10" guides="1" tooltips="1" connect="1" arrows="1" fold="1" page="1" pageScale="1" pageWidth="1169" pageHeight="827" math="0" shadow="0">
      <root>
        <mxCell id="0" />
        <mxCell id="1" parent="0" />
        <mxCell id="LaoaJAcWh6E7RhHDmjs4-51" value="VPC" style="sketch=0;outlineConnect=0;gradientColor=none;html=1;whiteSpace=wrap;fontSize=12;fontStyle=0;shape=mxgraph.aws4.group;grIcon=mxgraph.aws4.group_vpc;strokeColor=#879196;fillColor=none;verticalAlign=top;align=left;spacingLeft=30;fontColor=#879196;dashed=0;" parent="1" vertex="1">
          <mxGeometry x="40" y="270" width="440" height="450" as="geometry" />
        </mxCell>
        <mxCell id="LaoaJAcWh6E7RhHDmjs4-62" value="" style="ellipse;shape=cloud;whiteSpace=wrap;html=1;" parent="1" vertex="1">
          <mxGeometry x="255.5" y="190" width="63" height="30" as="geometry" />
        </mxCell>
        <mxCell id="LaoaJAcWh6E7RhHDmjs4-63" value="Internet" style="text;html=1;strokeColor=none;fillColor=none;align=center;verticalAlign=middle;whiteSpace=wrap;rounded=0;" parent="1" vertex="1">
          <mxGeometry x="203" y="190" width="60" height="30" as="geometry" />
        </mxCell>
        <mxCell id="LaoaJAcWh6E7RhHDmjs4-68" value="" style="group" parent="1" vertex="1" connectable="0">
          <mxGeometry x="200" y="730" width="60" height="70" as="geometry" />
        </mxCell>
        <mxCell id="LaoaJAcWh6E7RhHDmjs4-65" value="" style="sketch=0;points=[[0,0,0],[0.25,0,0],[0.5,0,0],[0.75,0,0],[1,0,0],[0,1,0],[0.25,1,0],[0.5,1,0],[0.75,1,0],[1,1,0],[0,0.25,0],[0,0.5,0],[0,0.75,0],[1,0.25,0],[1,0.5,0],[1,0.75,0]];outlineConnect=0;fontColor=#232F3E;fillColor=#DD344C;strokeColor=#ffffff;dashed=0;verticalLabelPosition=bottom;verticalAlign=top;align=center;html=1;fontSize=12;fontStyle=0;aspect=fixed;shape=mxgraph.aws4.resourceIcon;resIcon=mxgraph.aws4.secrets_manager;" parent="LaoaJAcWh6E7RhHDmjs4-68" vertex="1">
          <mxGeometry x="10" width="40" height="40" as="geometry" />
        </mxCell>
        <mxCell id="LaoaJAcWh6E7RhHDmjs4-67" value="&lt;font color=&quot;#dd344c&quot;&gt;Secrets manager&lt;/font&gt;" style="text;html=1;strokeColor=none;fillColor=none;align=center;verticalAlign=middle;whiteSpace=wrap;rounded=0;" parent="LaoaJAcWh6E7RhHDmjs4-68" vertex="1">
          <mxGeometry y="40" width="60" height="30" as="geometry" />
        </mxCell>
        <mxCell id="LaoaJAcWh6E7RhHDmjs4-70" value="" style="group" parent="1" vertex="1" connectable="0">
          <mxGeometry x="120" y="730" width="60" height="80" as="geometry" />
        </mxCell>
        <mxCell id="LaoaJAcWh6E7RhHDmjs4-66" value="" style="shape=image;verticalLabelPosition=bottom;labelBackgroundColor=default;verticalAlign=top;aspect=fixed;imageAspect=0;image=https://cdn.worldvectorlogo.com/logos/gitlab.svg;" parent="LaoaJAcWh6E7RhHDmjs4-70" vertex="1">
          <mxGeometry x="8.300000000000011" width="43.4" height="40" as="geometry" />
        </mxCell>
        <mxCell id="LaoaJAcWh6E7RhHDmjs4-69" value="&lt;font color=&quot;#fc6d26&quot;&gt;GitLab&lt;br&gt;container&lt;br&gt;repository&lt;/font&gt;" style="text;html=1;strokeColor=none;fillColor=none;align=center;verticalAlign=middle;whiteSpace=wrap;rounded=0;" parent="LaoaJAcWh6E7RhHDmjs4-70" vertex="1">
          <mxGeometry y="50" width="60" height="30" as="geometry" />
        </mxCell>
        <mxCell id="LaoaJAcWh6E7RhHDmjs4-71" value="" style="endArrow=classic;html=1;rounded=0;exitX=0;exitY=0.5;exitDx=0;exitDy=0;exitPerimeter=0;strokeColor=#DD344C;" parent="1" source="LaoaJAcWh6E7RhHDmjs4-65" edge="1">
          <mxGeometry width="50" height="50" relative="1" as="geometry">
            <mxPoint x="350" y="790" as="sourcePoint" />
            <mxPoint x="170" y="750" as="targetPoint" />
          </mxGeometry>
        </mxCell>
        <mxCell id="3d-vYzCYZiGsM_9QpBvQ-46" value="" style="group" parent="1" vertex="1" connectable="0">
          <mxGeometry x="176" y="320" width="314" height="390" as="geometry" />
        </mxCell>
        <mxCell id="3d-vYzCYZiGsM_9QpBvQ-42" value="" style="outlineConnect=0;dashed=0;verticalLabelPosition=bottom;verticalAlign=top;align=center;html=1;shape=mxgraph.aws3.application_load_balancer;fillColor=#F58536;gradientColor=none;" parent="3d-vYzCYZiGsM_9QpBvQ-46" vertex="1">
          <mxGeometry x="63.99666666666667" width="37.333333333333336" height="42" as="geometry" />
        </mxCell>
        <mxCell id="LaoaJAcWh6E7RhHDmjs4-25" value="&lt;font color=&quot;#7326bf&quot;&gt;Private subnet group&lt;/font&gt;" style="points=[[0,0],[0.25,0],[0.5,0],[0.75,0],[1,0],[1,0.25],[1,0.5],[1,0.75],[1,1],[0.75,1],[0.5,1],[0.25,1],[0,1],[0,0.75],[0,0.5],[0,0.25]];outlineConnect=0;html=1;whiteSpace=wrap;fontSize=12;fontStyle=0;container=1;pointerEvents=0;collapsible=0;recursiveResize=0;shape=mxgraph.aws4.group;grIcon=mxgraph.aws4.group_security_group;grStroke=0;strokeColor=#9673a6;fillColor=#e1d5e7;verticalAlign=top;align=left;spacingLeft=30;dashed=0;" parent="3d-vYzCYZiGsM_9QpBvQ-46" vertex="1">
          <mxGeometry x="138" y="55.68" width="140" height="328" as="geometry" />
        </mxCell>
        <mxCell id="LaoaJAcWh6E7RhHDmjs4-17" value="Private subnet" style="points=[[0,0],[0.25,0],[0.5,0],[0.75,0],[1,0],[1,0.25],[1,0.5],[1,0.75],[1,1],[0.75,1],[0.5,1],[0.25,1],[0,1],[0,0.75],[0,0.5],[0,0.25]];outlineConnect=0;gradientColor=none;html=1;whiteSpace=wrap;fontSize=12;fontStyle=0;container=1;pointerEvents=0;collapsible=0;recursiveResize=0;shape=mxgraph.aws4.group;grIcon=mxgraph.aws4.group_security_group;grStroke=0;strokeColor=#00A4A6;fillColor=#E6F6F7;verticalAlign=top;align=left;spacingLeft=30;fontColor=#147EBA;dashed=0;" parent="LaoaJAcWh6E7RhHDmjs4-25" vertex="1">
          <mxGeometry x="7.5" y="60" width="120" height="160" as="geometry" />
        </mxCell>
        <mxCell id="LaoaJAcWh6E7RhHDmjs4-43" value="" style="group" parent="LaoaJAcWh6E7RhHDmjs4-17" vertex="1" connectable="0">
          <mxGeometry x="32.5" y="66.28" width="60" height="70" as="geometry" />
        </mxCell>
        <mxCell id="LaoaJAcWh6E7RhHDmjs4-42" value="&lt;font color=&quot;#2e73b8&quot;&gt;Database&lt;/font&gt;" style="text;html=1;strokeColor=none;fillColor=none;align=center;verticalAlign=middle;whiteSpace=wrap;rounded=0;" parent="LaoaJAcWh6E7RhHDmjs4-43" vertex="1">
          <mxGeometry y="40" width="60" height="30" as="geometry" />
        </mxCell>
        <mxCell id="LaoaJAcWh6E7RhHDmjs4-41" value="" style="outlineConnect=0;dashed=0;verticalLabelPosition=bottom;verticalAlign=top;align=center;html=1;shape=mxgraph.aws3.mysql_db_instance;fillColor=#2E73B8;gradientColor=none;" parent="LaoaJAcWh6E7RhHDmjs4-43" vertex="1">
          <mxGeometry x="10" width="40" height="40" as="geometry" />
        </mxCell>
        <mxCell id="3d-vYzCYZiGsM_9QpBvQ-43" value="&lt;font color=&quot;#fc6d26&quot;&gt;Load balancer&lt;/font&gt;" style="text;html=1;strokeColor=none;fillColor=none;align=center;verticalAlign=middle;whiteSpace=wrap;rounded=0;" parent="3d-vYzCYZiGsM_9QpBvQ-46" vertex="1">
          <mxGeometry x="17.33" y="8.884615384615385" width="46.666666666666664" height="24.23076923076923" as="geometry" />
        </mxCell>
        <mxCell id="3d-vYzCYZiGsM_9QpBvQ-57" value="Private subnet" style="points=[[0,0],[0.25,0],[0.5,0],[0.75,0],[1,0],[1,0.25],[1,0.5],[1,0.75],[1,1],[0.75,1],[0.5,1],[0.25,1],[0,1],[0,0.75],[0,0.5],[0,0.25]];outlineConnect=0;gradientColor=none;html=1;whiteSpace=wrap;fontSize=12;fontStyle=0;container=1;pointerEvents=0;collapsible=0;recursiveResize=0;shape=mxgraph.aws4.group;grIcon=mxgraph.aws4.group_security_group;grStroke=0;strokeColor=#00A4A6;fillColor=#E6F6F7;verticalAlign=top;align=left;spacingLeft=30;fontColor=#147EBA;dashed=0;" parent="3d-vYzCYZiGsM_9QpBvQ-46" vertex="1">
          <mxGeometry x="148" y="331.12" width="120" height="49" as="geometry" />
        </mxCell>
        <mxCell id="3d-vYzCYZiGsM_9QpBvQ-49" value="" style="group" parent="1" vertex="1" connectable="0">
          <mxGeometry x="210" y="250" width="99" height="41" as="geometry" />
        </mxCell>
        <mxCell id="3d-vYzCYZiGsM_9QpBvQ-47" value="" style="outlineConnect=0;dashed=0;verticalLabelPosition=bottom;verticalAlign=top;align=center;html=1;shape=mxgraph.aws3.internet_gateway;fillColor=#F58534;gradientColor=none;" parent="3d-vYzCYZiGsM_9QpBvQ-49" vertex="1">
          <mxGeometry x="60" width="39" height="41" as="geometry" />
        </mxCell>
        <mxCell id="3d-vYzCYZiGsM_9QpBvQ-48" value="&lt;font color=&quot;#fc6d26&quot;&gt;Internet&lt;br&gt;Gateway&lt;br&gt;&lt;/font&gt;" style="text;html=1;strokeColor=none;fillColor=none;align=center;verticalAlign=middle;whiteSpace=wrap;rounded=0;" parent="3d-vYzCYZiGsM_9QpBvQ-49" vertex="1">
          <mxGeometry y="5.5" width="60" height="30" as="geometry" />
        </mxCell>
        <mxCell id="3d-vYzCYZiGsM_9QpBvQ-50" value="" style="endArrow=classic;startArrow=classic;html=1;rounded=0;exitX=0.5;exitY=0;exitDx=0;exitDy=0;exitPerimeter=0;entryX=0.55;entryY=0.95;entryDx=0;entryDy=0;entryPerimeter=0;" parent="1" source="3d-vYzCYZiGsM_9QpBvQ-47" target="LaoaJAcWh6E7RhHDmjs4-62" edge="1">
          <mxGeometry width="50" height="50" relative="1" as="geometry">
            <mxPoint x="440" y="190" as="sourcePoint" />
            <mxPoint x="490" y="140" as="targetPoint" />
          </mxGeometry>
        </mxCell>
        <mxCell id="3d-vYzCYZiGsM_9QpBvQ-52" value="" style="endArrow=classic;startArrow=classic;html=1;rounded=0;strokeColor=#FC6D26;" parent="1" source="3d-vYzCYZiGsM_9QpBvQ-47" target="3d-vYzCYZiGsM_9QpBvQ-42" edge="1">
          <mxGeometry width="50" height="50" relative="1" as="geometry">
            <mxPoint x="290" y="290" as="sourcePoint" />
            <mxPoint x="251" y="424" as="targetPoint" />
          </mxGeometry>
        </mxCell>
        <mxCell id="3d-vYzCYZiGsM_9QpBvQ-61" value="Region" style="points=[[0,0],[0.25,0],[0.5,0],[0.75,0],[1,0],[1,0.25],[1,0.5],[1,0.75],[1,1],[0.75,1],[0.5,1],[0.25,1],[0,1],[0,0.75],[0,0.5],[0,0.25]];outlineConnect=0;gradientColor=none;html=1;whiteSpace=wrap;fontSize=12;fontStyle=0;container=1;pointerEvents=0;collapsible=0;recursiveResize=0;shape=mxgraph.aws4.group;grIcon=mxgraph.aws4.group_region;strokeColor=#00A4A6;fillColor=none;verticalAlign=top;align=left;spacingLeft=30;fontColor=#147EBA;dashed=1;" parent="1" vertex="1">
          <mxGeometry x="46" y="305" width="424" height="410" as="geometry" />
        </mxCell>
        <mxCell id="LaoaJAcWh6E7RhHDmjs4-15" value="Public subnet" style="points=[[0,0],[0.25,0],[0.5,0],[0.75,0],[1,0],[1,0.25],[1,0.5],[1,0.75],[1,1],[0.75,1],[0.5,1],[0.25,1],[0,1],[0,0.75],[0,0.5],[0,0.25]];outlineConnect=0;gradientColor=none;html=1;whiteSpace=wrap;fontSize=12;fontStyle=0;container=1;pointerEvents=0;collapsible=0;recursiveResize=0;shape=mxgraph.aws4.group;grIcon=mxgraph.aws4.group_security_group;grStroke=0;strokeColor=#7AA116;fillColor=#F2F6E8;verticalAlign=top;align=left;spacingLeft=30;fontColor=#248814;dashed=0;" parent="3d-vYzCYZiGsM_9QpBvQ-61" vertex="1">
          <mxGeometry x="41.33" y="101.96000000000001" width="220" height="210" as="geometry" />
        </mxCell>
        <mxCell id="3d-vYzCYZiGsM_9QpBvQ-51" value="" style="endArrow=classic;startArrow=classic;html=1;rounded=0;exitX=0.5;exitY=1;exitDx=0;exitDy=0;exitPerimeter=0;strokeColor=#FC6D26;entryX=0.927;entryY=-0.006;entryDx=0;entryDy=0;entryPerimeter=0;" parent="1" source="3d-vYzCYZiGsM_9QpBvQ-42" edge="1">
          <mxGeometry width="50" height="50" relative="1" as="geometry">
            <mxPoint x="258.66333333333347" y="379.4" as="sourcePoint" />
            <mxPoint x="258.5699999999998" y="436.7800000000001" as="targetPoint" />
          </mxGeometry>
        </mxCell>
        <mxCell id="LaoaJAcWh6E7RhHDmjs4-72" value="" style="endArrow=classic;html=1;rounded=0;exitX=0.5;exitY=0;exitDx=0;exitDy=0;fillColor=#fa6800;strokeColor=#FC6D26;" parent="1" source="LaoaJAcWh6E7RhHDmjs4-66" edge="1">
          <mxGeometry width="50" height="50" relative="1" as="geometry">
            <mxPoint x="120" y="675.8199999999999" as="sourcePoint" />
            <mxPoint x="150" y="560" as="targetPoint" />
          </mxGeometry>
        </mxCell>
        <mxCell id="oGb9Hbnw0ZN2h7dU3X-r-19" value="" style="group" vertex="1" connectable="0" parent="1">
          <mxGeometry x="81" y="643" width="224" height="61" as="geometry" />
        </mxCell>
        <mxCell id="oGb9Hbnw0ZN2h7dU3X-r-16" value="" style="rounded=0;whiteSpace=wrap;html=1;fillColor=#f2f6e8;strokeColor=none;" vertex="1" parent="oGb9Hbnw0ZN2h7dU3X-r-19">
          <mxGeometry width="223.99999999999997" height="59" as="geometry" />
        </mxCell>
        <mxCell id="oGb9Hbnw0ZN2h7dU3X-r-17" value="" style="shape=image;verticalLabelPosition=bottom;labelBackgroundColor=default;verticalAlign=top;aspect=fixed;imageAspect=0;image=data:image/png,iVBORw0KGgoAAAANSUhEUgAAAEMAAABCCAYAAAAMlmvWAAAAAXNSR0IArs4c6QAAAARnQU1BAACxjwv8YQUAAAAJcEhZcwAAEnQAABJ0Ad5mH3gAAAMASURBVHhe7ZoxbxMxFIANIx2y0CCBFLoCKlPKFIkVwdCJhbFM+QdI0KkM/INMLAwdYCpSEGtFt2QigplGKkPpkqFdSz7HPl5STkpyZ/ug75NOd3EuVf2d7fds35XzMe+/tM25udys1R8YK+Pluxuu6PKyvrZprrprZYzKEKgMgcoQqAyByhBUQkZt5aa7SkuSPIPKr9/eNI3VpmnUN1ypMaPTn2b4qzc++vbM51iQZ0SVgYQnzZ0LAibnowvlgx975uB7x5WEJaqM1t22ad1r22tf0cHh3tTT992FViPv3d3fmrovBNFkSBEH3zpzPW3flfgdIrr9V2Z43Hfflk+UdLxRb2YVevPh/tzNnvu5F3mT7vXafROO4DJ8JXiyy4AQupQVsrHjSsMQVAb/PJXg6RZp4gihpdCUaWmhCCqjsTqJDvN2jTz8mAGN638iTtkElUGrGB733KdiIATITUIRTAZNGkZn5YREL6O2csueQxB8ACWbLAtaGa2NIwTBZNSuVWO+sQjBW8a/hMoQqAyByhCoDEGhWSupcd4Eyoc/nx+UwTx/s/PpkbtajMJTeDk1rwrIWOYBlCaj29u2M8uUPHv41q6UFZGhY4ZAZQhUhkBlCCohI9QsdFGSyiAavXj61bQff84OylKRTIatuMtRCIVsItFCKEslJIkMcgIqTm7C9gG5we7+8yxHQEjIhd88ksggOWLVimRNggi/8Nu6E791RJfh10YHhx/teRa/pRByrTOP6DJGZ0dT579BC0kRYeLLcPOGvG7AWOHHk9gkkcF4wbgxGzVsNHGS2KGPTZIBtNvfzqIGIZbowsG1H1xD7rjnkUQGInjnwm8oI4CDcvZlCbMpSCIDqDih1a9M8ZnrovuyRUgmYxYy0NRURkYVUBkClSFQGQKVIaiEDHKLvIlbTJLLsImWe6MvNdpNBCpDUMr2on3P86Sct/qWhQ1w5jlFthd149lRWAZPgpfdOVcBPxgvQ2EZ/xO6Cz+DyhCoDIHKEKgMgcoQqIwMY34DYI6FSjT1bnYAAAAASUVORK5CYII=;" vertex="1" parent="oGb9Hbnw0ZN2h7dU3X-r-19">
          <mxGeometry y="35" width="25.52" height="25.14" as="geometry" />
        </mxCell>
        <mxCell id="oGb9Hbnw0ZN2h7dU3X-r-18" value="Public subnet" style="text;html=1;strokeColor=none;fillColor=none;align=left;verticalAlign=middle;whiteSpace=wrap;rounded=0;fontColor=#7aa116;" vertex="1" parent="oGb9Hbnw0ZN2h7dU3X-r-19">
          <mxGeometry x="30.545454545454543" y="31" width="106.90909090909089" height="30" as="geometry" />
        </mxCell>
        <mxCell id="oGb9Hbnw0ZN2h7dU3X-r-15" value="" style="rounded=0;whiteSpace=wrap;html=1;fillColor=#ffe6cc;strokeColor=#d79b00;" vertex="1" parent="1">
          <mxGeometry x="98" y="437" width="200" height="236" as="geometry" />
        </mxCell>
        <mxCell id="PBI-9ugg-dZJTfprg6aI-2" value="Availability zone" style="sketch=0;outlineConnect=0;gradientColor=none;html=1;whiteSpace=wrap;fontSize=12;fontStyle=0;shape=mxgraph.aws4.group;grIcon=mxgraph.aws4.group_availability_zone;strokeColor=#545B64;fillColor=none;verticalAlign=top;align=left;spacingLeft=30;fontColor=#545B64;dashed=1;" parent="1" vertex="1">
          <mxGeometry x="52" y="623.56" width="408" height="86.44" as="geometry" />
        </mxCell>
        <mxCell id="oGb9Hbnw0ZN2h7dU3X-r-20" value="" style="sketch=0;points=[[0,0,0],[0.25,0,0],[0.5,0,0],[0.75,0,0],[1,0,0],[0,1,0],[0.25,1,0],[0.5,1,0],[0.75,1,0],[1,1,0],[0,0.25,0],[0,0.5,0],[0,0.75,0],[1,0.25,0],[1,0.5,0],[1,0.75,0]];outlineConnect=0;fontColor=#232F3E;fillColor=#ED7100;strokeColor=#ffffff;dashed=0;verticalLabelPosition=bottom;verticalAlign=top;align=center;html=1;fontSize=12;fontStyle=0;aspect=fixed;shape=mxgraph.aws4.resourceIcon;resIcon=mxgraph.aws4.ecs;" vertex="1" parent="1">
          <mxGeometry x="98" y="437" width="24" height="24" as="geometry" />
        </mxCell>
        <mxCell id="oGb9Hbnw0ZN2h7dU3X-r-21" value="&lt;font color=&quot;#fc6d26&quot; style=&quot;font-size: 11px;&quot;&gt;Elastic Container Service&lt;/font&gt;" style="text;html=1;strokeColor=none;fillColor=none;align=left;verticalAlign=middle;whiteSpace=wrap;rounded=0;" vertex="1" parent="1">
          <mxGeometry x="123.5" y="436" width="149" height="26" as="geometry" />
        </mxCell>
        <mxCell id="oGb9Hbnw0ZN2h7dU3X-r-5" value="" style="rounded=0;whiteSpace=wrap;html=1;fillColor=#FFF3E6;strokeColor=#FFB570;" vertex="1" parent="1">
          <mxGeometry x="123" y="475" width="140" height="100" as="geometry" />
        </mxCell>
        <mxCell id="oGb9Hbnw0ZN2h7dU3X-r-6" value="" style="sketch=0;points=[[0,0,0],[0.25,0,0],[0.5,0,0],[0.75,0,0],[1,0,0],[0,1,0],[0.25,1,0],[0.5,1,0],[0.75,1,0],[1,1,0],[0,0.25,0],[0,0.5,0],[0,0.75,0],[1,0.25,0],[1,0.5,0],[1,0.75,0]];outlineConnect=0;fontColor=#232F3E;fillColor=#ED7100;strokeColor=#ffffff;dashed=0;verticalLabelPosition=bottom;verticalAlign=top;align=center;html=1;fontSize=12;fontStyle=0;aspect=fixed;shape=mxgraph.aws4.resourceIcon;resIcon=mxgraph.aws4.fargate;" vertex="1" parent="1">
          <mxGeometry x="123" y="475" width="28" height="28" as="geometry" />
        </mxCell>
        <mxCell id="oGb9Hbnw0ZN2h7dU3X-r-7" value="&lt;font color=&quot;#d4911e&quot;&gt;Fargate service&lt;/font&gt;" style="text;html=1;strokeColor=none;fillColor=none;align=left;verticalAlign=middle;whiteSpace=wrap;rounded=0;" vertex="1" parent="1">
          <mxGeometry x="153" y="475" width="110" height="30" as="geometry" />
        </mxCell>
        <mxCell id="oGb9Hbnw0ZN2h7dU3X-r-8" value="" style="group" vertex="1" connectable="0" parent="1">
          <mxGeometry x="133" y="515" width="50" height="40" as="geometry" />
        </mxCell>
        <mxCell id="oGb9Hbnw0ZN2h7dU3X-r-9" value="" style="outlineConnect=0;dashed=0;verticalLabelPosition=bottom;verticalAlign=top;align=center;html=1;shape=mxgraph.aws3.ec2_compute_container_2;fillColor=#F58534;gradientColor=none;" vertex="1" parent="oGb9Hbnw0ZN2h7dU3X-r-8">
          <mxGeometry x="4.166666666666667" width="41.66666666666667" height="24" as="geometry" />
        </mxCell>
        <mxCell id="oGb9Hbnw0ZN2h7dU3X-r-10" value="&lt;font style=&quot;font-size: 10px;&quot;&gt;Container&lt;/font&gt;" style="text;html=1;strokeColor=none;fillColor=none;align=center;verticalAlign=middle;whiteSpace=wrap;rounded=0;fontColor=#f58534;" vertex="1" parent="oGb9Hbnw0ZN2h7dU3X-r-8">
          <mxGeometry y="16" width="50" height="24" as="geometry" />
        </mxCell>
        <mxCell id="oGb9Hbnw0ZN2h7dU3X-r-11" value="" style="group" vertex="1" connectable="0" parent="1">
          <mxGeometry x="203" y="505" width="60" height="60" as="geometry" />
        </mxCell>
        <mxCell id="oGb9Hbnw0ZN2h7dU3X-r-12" value="" style="image;aspect=fixed;html=1;points=[];align=center;fontSize=12;image=img/lib/azure2/general/Files.svg;" vertex="1" parent="oGb9Hbnw0ZN2h7dU3X-r-11">
          <mxGeometry x="16.28" width="27.43" height="30" as="geometry" />
        </mxCell>
        <mxCell id="oGb9Hbnw0ZN2h7dU3X-r-13" value="&lt;font style=&quot;font-size: 10px;&quot; color=&quot;#87aff0&quot;&gt;container definitions&lt;/font&gt;" style="text;html=1;strokeColor=none;fillColor=none;align=center;verticalAlign=middle;whiteSpace=wrap;rounded=0;fontSize=10;" vertex="1" parent="oGb9Hbnw0ZN2h7dU3X-r-11">
          <mxGeometry y="30" width="60" height="30" as="geometry" />
        </mxCell>
        <mxCell id="oGb9Hbnw0ZN2h7dU3X-r-14" value="" style="endArrow=classic;html=1;rounded=0;entryX=1;entryY=0.5;entryDx=0;entryDy=0;entryPerimeter=0;exitX=-0.055;exitY=0.72;exitDx=0;exitDy=0;exitPerimeter=0;strokeWidth=1;strokeColor=#87AFF0;" edge="1" parent="1" source="oGb9Hbnw0ZN2h7dU3X-r-12" target="oGb9Hbnw0ZN2h7dU3X-r-9">
          <mxGeometry width="50" height="50" relative="1" as="geometry">
            <mxPoint x="173" y="565" as="sourcePoint" />
            <mxPoint x="223" y="515" as="targetPoint" />
          </mxGeometry>
        </mxCell>
        <mxCell id="LaoaJAcWh6E7RhHDmjs4-53" value="" style="endArrow=classic;startArrow=classic;html=1;rounded=0;exitX=0;exitY=0.5;exitDx=0;exitDy=0;exitPerimeter=0;fillColor=#e1d5e7;strokeColor=#9673a6;shadow=0;entryX=0.962;entryY=0.601;entryDx=0;entryDy=0;entryPerimeter=0;" parent="1" source="LaoaJAcWh6E7RhHDmjs4-41" edge="1">
          <mxGeometry width="50" height="50" relative="1" as="geometry">
            <mxPoint x="-20" y="585.68" as="sourcePoint" />
            <mxPoint x="249.99766" y="524.99" as="targetPoint" />
          </mxGeometry>
        </mxCell>
        <mxCell id="PBI-9ugg-dZJTfprg6aI-1" value="Availability zone" style="sketch=0;outlineConnect=0;gradientColor=none;html=1;whiteSpace=wrap;fontSize=12;fontStyle=0;shape=mxgraph.aws4.group;grIcon=mxgraph.aws4.group_availability_zone;strokeColor=#545B64;fillColor=none;verticalAlign=top;align=left;spacingLeft=30;fontColor=#545B64;dashed=1;" parent="1" vertex="1">
          <mxGeometry x="50" y="368.44" width="410" height="251.56" as="geometry" />
        </mxCell>
      </root>
    </mxGraphModel>
  </diagram>
</mxfile>
